<?xml version="1.0" encoding="UTF-8" standalone="no"?>
<svg width="56px" height="90px" viewBox="0 0 56 90" version="1.1" xmlns="http://www.w3.org/2000/svg" xmlns:xlink="http://www.w3.org/1999/xlink">
    <!-- Generator: Sketch 47 (45396) - http://www.bohemiancoding.com/sketch -->
    <title>Group-Copy-14</title>
    <desc>Created with Sketch.</desc>
    <defs></defs>
    <g id="Page-1" stroke="none" stroke-width="1" fill="none" fill-rule="evenodd">
        <g id="wraptogive_logo" transform="translate(0.000000, 3.000000)">
            <g id="Group-Copy-14" transform="translate(0.000000, 1.000000)">
                <path d="M47.5636364,2.96234015 C46.5454525,1.95814953 45.39205,1.21338869 44.1034106,0.728031931 C42.8147651,0.242675168 41.5022819,0 40.165906,0 C38.8295363,0 37.5170531,0.242675168 36.2284076,0.728031931 C34.9397681,1.21338869 33.7863657,1.95814953 32.7681818,2.96234015 L30,5.62343146 L27.2318182,2.96234015 C26.2136343,1.95814953 25.0602319,1.21338869 23.7715924,0.728031931 C22.4829469,0.242675168 21.1704637,0 19.834094,0 C18.4977206,0 17.1852337,0.242675168 15.8965906,0.728031931 C14.6079481,1.21338869 13.4545505,1.95814953 12.4363636,2.96234015 C11.2909036,4.06694918 10.4318212,5.31379569 9.85909091,6.70292465 C9.28636058,8.09205361 9,9.51463395 9,10.9707107 C9,12.426781 9.28636058,13.857729 9.85909091,15.2635997 C10.4318212,16.669464 11.2909036,17.9246782 12.4363636,19.0292872 L30,36 L47.5636364,19.0292872 C48.709097,17.9246782 49.5681818,16.669464 50.1409091,15.2635997 C50.7136364,13.857729 51,12.426781 51,10.9707107 C51,9.51463395 50.7136364,8.09205361 50.1409091,6.70292465 C49.5681818,5.31379569 48.709097,4.06694918 47.5636364,2.96234015 Z" id="Page-1-Copy-5" stroke="#E50032" stroke-width="7"></path>
                <g id="Group-Copy-2" transform="translate(0.000000, 25.000000)" fill-rule="nonzero">
                    <path d="M32.5194626,7.45578521 C31.8241558,6.76602138 30.9919115,6.42115 30.0226942,6.42115 C29.0534841,6.42115 28.2212397,6.76602138 27.5259329,7.45578521 C26.8306261,8.14554904 26.4829763,8.97115874 26.4829763,9.93264942 L26.4829763,30.5000002 L25.4716293,30.5000002 L25.4716293,13.9457876 C25.4716293,12.9843039 25.1239865,12.1586872 24.4286797,11.4689304 C23.7333729,10.7791666 22.9011286,10.4342882 21.9319113,10.4342882 C20.9627011,10.4342882 20.1304497,10.7791666 19.43515,11.4689304 C18.7398432,12.1586872 18.3921933,12.9843039 18.3921933,13.9457876 L18.3921933,30.5000002 L18.3921933,38.5262836 L13.5250811,32.0989895 C12.7244252,31.0329896 11.6498801,30.5000002 10.3014104,30.5000002 C9.18470936,30.5000002 8.23131252,30.8919046 7.44119296,31.6757274 C6.65107339,32.4595433 6.25601963,33.4053446 6.25601963,34.5131454 C6.25601963,35.4119207 6.52992371,36.216637 7.07773967,36.9273012 L19.2139176,52.9798673 C20.0145735,54.045863 21.0891186,54.5788532 22.4375883,54.5788532 L44.1815661,54.5788532 C44.8979413,54.5788532 45.540563,54.3489363 46.1094523,53.8890942 C46.6783345,53.4292529 47.0365186,52.8440088 47.1840116,52.1333445 L49.585958,39.4355091 C49.6913071,38.7666527 49.7439852,38.1500545 49.7439852,37.5857074 L49.7439852,21.972071 C49.7439852,21.0105873 49.3963353,20.1849706 48.7010285,19.4952138 C48.0057288,18.80545 47.1734774,18.4605716 46.2042672,18.4605716 C45.2350499,18.4605716 44.4028056,18.80545 43.7074988,19.4952138 C43.012192,20.1849706 42.6645492,21.0105873 42.6645492,21.972071 L42.6645492,30.5000002 L41.6532022,30.5000002 L41.6532022,13.9457876 C41.6532022,12.9843039 41.3055524,12.1586872 40.6102456,11.4689304 C39.9149388,10.7791666 39.0826944,10.4342882 38.1134842,10.4342882 C37.144267,10.4342882 36.3120227,10.7791666 35.6167159,11.4689304 C34.9214091,12.1586872 34.5737663,12.9843039 34.5737663,13.9457876 L34.5737663,30.5000002 L33.5624122,30.5000002 L33.5624122,9.93264942 C33.5624122,8.97115874 33.2147694,8.14554904 32.5194626,7.45578521 Z M25.8725467,1.22544425 C27.1993515,0.408478875 28.6405127,0 30.1960763,0 C31.75164,0 33.1870826,0.402805875 34.5024501,1.20842525 C35.8178177,2.01404462 36.8300617,3.10899462 37.5392205,4.49330575 C37.9738562,4.40253012 38.4542484,4.35714612 38.980397,4.35714612 C41.2451117,4.35714612 43.1838208,5.15707725 44.7965704,6.75697762 C46.4093199,8.35687037 47.215687,10.2801241 47.215687,12.5267846 L47.215687,13.1054687 C49.6176633,12.9693091 51.6821813,13.6954912 53.409318,15.284038 C55.136447,16.8725924 56,18.8582491 56,21.2410692 L56,38.1930836 C56,39.1008246 55.9085026,40.0425884 55.7254924,41.018413 L53.1176469,54.7706472 C52.7973829,56.5634387 51.9223928,58.0498456 50.4926457,59.2299104 C49.0629064,60.4099761 47.4215793,61 45.5686259,61 L21.9607863,61 C20.5882328,61 19.2785992,60.6879681 18.0318624,60.0638948 C16.7851255,59.4398221 15.7500072,58.5944993 14.926469,57.5279021 L1.75000029,40.0993336 C0.583327537,38.5561709 0,36.8087877 0,34.8571461 C0,32.4516264 0.857834387,30.397886 2.57352929,28.6958716 C4.2892242,26.9938496 6.35946544,26.1428539 8.78431297,26.1428539 C10.5686356,26.1428539 12.0326711,26.5286407 13.1764733,27.3002221 L13.1764733,12.5267846 C13.1764733,10.2801241 13.9828327,8.35687037 15.5955899,6.75697762 C17.2083395,5.15707725 19.1470486,4.35714612 21.4117633,4.35714612 C21.9379119,4.35714612 22.4182964,4.40253012 22.8529399,4.49330575 C23.5620986,3.10899462 24.568624,2.01971762 25.8725467,1.22544425 Z" id="Page-1" fill="#000000"></path>
                    <path d="M32.5726731,7.05273138 C31.8691796,6.35090332 31.0271363,6 30.0465073,6 C29.0658855,6 28.2238422,6.35090332 27.5203488,7.05273138 C26.8168553,7.75455945 26.4651121,8.59460938 26.4651121,9.5729169 L26.4651121,30.4999986 L25.4418574,30.4999986 L25.4418574,13.6562464 C25.4418574,12.677946 25.0901214,11.837889 24.386628,11.1360681 C23.6831345,10.43424 22.8410912,10.0833295 21.8604622,10.0833295 C20.8798404,10.0833295 20.0377899,10.43424 19.3343036,11.1360681 C18.6308102,11.837889 18.279067,12.677946 18.279067,13.6562464 L18.279067,30.4999986 L18.279067,38.6666648 L13.3546486,32.1269549 C12.5445657,31.0423102 11.4573687,30.4999986 10.0930219,30.4999986 C8.96317261,30.4999986 7.99855032,30.8987575 7.19912775,31.6962898 C6.39970519,32.4938148 6,33.4561586 6,34.5833352 C6,35.4978305 6.27712908,36.3166215 6.83139511,37.0397156 L19.1104664,53.3730473 C19.9205494,54.4576877 21.0077463,55 22.3720932,55 L44.3720881,55 C45.0968981,55 45.747086,54.7660618 46.3226735,54.2981769 C46.8982539,53.8302927 47.2606553,53.2348126 47.4098849,52.5117185 L49.8401122,39.591793 C49.9467017,38.9112381 50,38.2838553 50,37.7096375 L50,21.8229126 C50,20.8446122 49.6482569,20.0045552 48.9447634,19.3027342 C48.2412771,18.6009062 47.3992266,18.2499957 46.4186048,18.2499957 C45.4379758,18.2499957 44.5959325,18.6009062 43.892439,19.3027342 C43.1889456,20.0045552 42.8372096,20.8446122 42.8372096,21.8229126 L42.8372096,30.4999986 L41.8139549,30.4999986 L41.8139549,13.6562464 C41.8139549,12.677946 41.4622117,11.837889 40.7587182,11.1360681 C40.0552248,10.43424 39.2131815,10.0833295 38.2325597,10.0833295 C37.2519307,10.0833295 36.4098874,10.43424 35.7063939,11.1360681 C35.0029004,11.837889 34.6511645,12.677946 34.6511645,13.6562464 L34.6511645,30.4999986 L33.6279025,30.4999986 L33.6279025,9.5729169 C33.6279025,8.59460938 33.2761666,7.75455945 32.5726731,7.05273138 Z" id="Page-1-Copy-2" fill="#FFFFFF"></path>
                </g>
            </g>
        </g>
    </g>
</svg>