<?xml version="1.0" encoding="UTF-8"?>
<svg width="245px" height="103px" viewBox="0 0 245 103" version="1.1" xmlns="http://www.w3.org/2000/svg" xmlns:xlink="http://www.w3.org/1999/xlink">
    <!-- Generator: Sketch 47.1 (45422) - http://www.bohemiancoding.com/sketch -->
    <title>Group Copy</title>
    <desc>Created with Sketch.</desc>
    <defs></defs>
    <g id="Page-1" stroke="none" stroke-width="1" fill="none" fill-rule="evenodd">
        <g id="Artboard" transform="translate(-201.000000, -403.000000)">
            <g id="Group-Copy" transform="translate(201.000000, 391.000000)">
                <path d="M156.848,85.024 L156.848,94.384 C156.848,107.704 149.36,112.528 138.704,112.528 C132.44,112.528 128.912,111.304 127.472,110.728 C126.608,110.44 126.32,110.152 126.32,109 L126.32,107.92 C126.32,106.624 126.824,106.624 127.832,106.912 C129.272,107.344 133.16,108.712 138.488,108.712 C146.192,108.712 152.528,105.184 152.528,94.744 L152.528,94.096 C150.224,98.2 146.12,100.72 140.288,100.72 C130.856,100.72 124.952,94.096 124.952,84.88 C124.952,75.304 131.216,69.04 140.72,69.04 C150.512,69.04 156.848,75.304 156.848,85.024 Z M152.24,84.88 C152.24,78.04 147.992,73 140.792,73 C133.664,73 129.632,78.04 129.632,84.88 C129.632,91.72 133.592,96.76 140.792,96.76 C147.92,96.76 152.24,91.72 152.24,84.88 Z M167.56,93.16 C167.56,98.344 168.928,100.504 173.392,100.504 C174.4,100.504 175.192,100.36 176.056,100.072 C176.92,99.856 177.136,99.568 177.136,98.632 L177.136,97.264 C177.136,96.328 176.92,96.184 176.344,96.328 C175.84,96.4 175.408,96.544 174.4,96.544 C172.6,96.544 172.096,95.104 172.096,92.656 L172.096,71.416 C172.096,70.12 171.808,69.76 170.44,69.76 L169.216,69.76 C167.92,69.76 167.56,70.12 167.56,71.416 L167.56,93.16 Z M169.936,63.712 C171.52,63.712 172.816,62.56 172.816,60.688 C172.816,58.888 171.52,57.664 169.936,57.664 C168.208,57.664 166.912,58.888 166.912,60.688 C166.912,62.56 168.208,63.712 169.936,63.712 Z M192.096,98.488 C192.6,99.712 193.032,100 194.4,100 L196.128,100 C197.424,100 197.856,99.712 198.36,98.488 L209.16,71.272 C209.664,70.048 209.448,69.76 208.152,69.76 L206.568,69.76 C205.272,69.76 204.84,70.12 204.48,71.344 L195.264,95.752 L185.904,71.344 C185.544,70.12 185.112,69.76 183.816,69.76 L182.304,69.76 C181.008,69.76 180.792,70.048 181.296,71.272 L192.096,98.488 Z M227.504,87.976 L220.376,87.976 C221.456,94.528 225.992,96.904 231.608,96.904 C235.496,96.904 238.592,95.752 240.824,94.96 C241.688,94.672 242.336,94.744 242.336,96.04 L242.336,97.12 C242.336,98.056 242.192,98.416 241.184,98.848 C238.736,99.856 235.352,100.72 231.32,100.72 C221.456,100.72 215.84,95.32 215.84,84.88 C215.84,75.88 219.944,69.04 230.024,69.04 C236.216,69.04 241.76,71.56 241.76,78.4 C241.76,85.528 235.928,87.976 227.504,87.976 Z M220.16,84.664 L220.16,84.736 L227.216,84.736 C233.408,84.736 237.368,83.08 237.368,78.4 C237.368,74.008 233.984,72.568 230.24,72.568 C223.616,72.568 220.16,77.248 220.16,84.664 Z" id="give-copy" stroke="#000000" stroke-width="4" fill="#000000"></path>
                <path d="M103.696,33.544 C103.696,40.384 100.096,42.688 96.424,42.688 C92.68,42.688 89.08,40.384 89.08,33.544 L89.08,17.416 C89.08,16.12 88.72,15.76 87.424,15.76 L86.128,15.76 C84.832,15.76 84.472,16.12 84.472,17.416 L84.472,33.544 C84.472,40.384 80.944,42.688 77.2,42.688 C73.528,42.688 69.928,40.384 69.928,33.544 L69.928,17.416 C69.928,16.12 69.64,15.76 68.272,15.76 L67.048,15.76 C65.752,15.76 65.392,16.12 65.392,17.416 L65.392,33.328 C65.392,43.912 71.296,46.72 76.768,46.72 C81.232,46.72 84.976,44.848 86.776,40.24 C88.504,44.848 92.392,46.72 96.928,46.72 C102.4,46.72 108.232,43.84 108.232,33.328 L108.232,17.416 C108.232,16.12 107.872,15.76 106.576,15.76 L105.28,15.76 C103.984,15.76 103.696,16.12 103.696,17.416 L103.696,33.544 Z M133.704,15.112 C133.056,15.04 132.264,15.04 131.688,15.04 C123.696,15.04 118.944,19.288 118.944,28.648 L118.944,44.416 C118.944,45.64 119.304,46 120.6,46 L121.824,46 C123.192,46 123.48,45.64 123.48,44.344 L123.48,28.648 C123.48,22.384 126.432,19.144 131.688,19.144 C132.264,19.144 133.128,19.216 133.704,19.216 C134.64,19.216 134.928,18.928 134.928,18.064 L134.928,16.552 C134.928,15.544 134.568,15.112 133.704,15.112 Z M170.624,31.024 L170.624,38.512 C170.624,41.176 171.056,42.544 173,42.544 C173.504,42.544 174.008,42.4 174.296,42.256 C175.304,42.04 175.592,42.04 175.592,42.976 L175.592,44.632 C175.592,45.28 175.232,45.712 174.512,45.928 C173.504,46.288 172.856,46.36 171.2,46.36 C168.104,46.36 166.088,44.992 166.016,40.6 C163.64,44.416 159.608,46.72 154.064,46.72 C144.632,46.72 138.728,40.096 138.728,30.88 C138.728,21.304 144.992,15.04 154.496,15.04 C164.288,15.04 170.624,21.304 170.624,31.024 Z M166.016,30.88 C166.016,24.04 161.768,19 154.568,19 C147.44,19 143.408,24.04 143.408,30.88 C143.408,37.72 147.368,42.76 154.568,42.76 C161.696,42.76 166.016,37.72 166.016,30.88 Z M182.272,57.736 L182.272,31.024 C182.272,21.304 188.608,15.04 198.4,15.04 C207.904,15.04 214.168,21.304 214.168,30.88 C214.168,40.096 208.264,46.72 198.832,46.72 C193.072,46.72 188.968,44.272 186.664,40.24 L186.664,57.736 C186.664,59.104 186.376,59.392 185.008,59.392 L183.928,59.392 C182.632,59.392 182.272,59.104 182.272,57.736 Z M186.88,30.88 C186.88,37.72 191.2,42.76 198.328,42.76 C205.528,42.76 209.488,37.72 209.488,30.88 C209.488,24.04 205.456,19 198.328,19 C191.2,19 186.88,24.04 186.88,30.88 Z" id="wrap-copy" stroke="#000000" stroke-width="4" fill="#000000"></path>
                <path d="M65.464,87.48 C65.464,96.336 68.704,99.36 74.752,99.36 C75.688,99.36 77.128,99.288 78.136,98.928 C78.568,98.784 79.072,98.568 79.072,97.56 L79.072,96.048 C79.072,95.256 78.712,95.04 78.136,95.112 C77.128,95.4 76.48,95.544 75.472,95.544 C72.088,95.544 70.072,94.176 70.072,88.344 L70.072,72.432 L76.264,72.432 C77.416,72.432 77.704,72.072 77.704,70.992 L77.704,70.2 C77.704,69.048 77.416,68.76 76.264,68.76 L70.072,68.76 L70.072,62.208 C70.072,60.84 69.64,60.552 68.2,60.552 L67.12,60.552 C65.824,60.552 65.464,60.84 65.464,62.208 L65.464,87.48 Z M116.64,83.952 C116.64,93.312 110.376,99.72 100.584,99.72 C90.792,99.72 84.6,93.312 84.6,83.952 C84.6,74.592 90.792,68.04 100.584,68.04 C110.448,68.04 116.64,74.592 116.64,83.952 Z M111.96,83.952 C111.96,76.896 107.64,72 100.584,72 C93.528,72 89.28,76.896 89.28,83.952 C89.28,91.008 93.528,95.76 100.584,95.76 C107.64,95.76 111.96,91.008 111.96,83.952 Z" id="to-copy" stroke="#E50032" stroke-width="4" fill="#E50032"></path>
                <g id="Group-Copy-14" transform="translate(0.000000, 16.000000)">
                    <path d="M47.5636364,2.96234015 C46.5454525,1.95814953 45.39205,1.21338869 44.1034106,0.728031931 C42.8147651,0.242675168 41.5022819,0 40.165906,0 C38.8295363,0 37.5170531,0.242675168 36.2284076,0.728031931 C34.9397681,1.21338869 33.7863657,1.95814953 32.7681818,2.96234015 L30,5.62343146 L27.2318182,2.96234015 C26.2136343,1.95814953 25.0602319,1.21338869 23.7715924,0.728031931 C22.4829469,0.242675168 21.1704637,0 19.834094,0 C18.4977206,0 17.1852337,0.242675168 15.8965906,0.728031931 C14.6079481,1.21338869 13.4545505,1.95814953 12.4363636,2.96234015 C11.2909036,4.06694918 10.4318212,5.31379569 9.85909091,6.70292465 C9.28636058,8.09205361 9,9.51463395 9,10.9707107 C9,12.426781 9.28636058,13.857729 9.85909091,15.2635997 C10.4318212,16.669464 11.2909036,17.9246782 12.4363636,19.0292872 L30,36 L47.5636364,19.0292872 C48.709097,17.9246782 49.5681818,16.669464 50.1409091,15.2635997 C50.7136364,13.857729 51,12.426781 51,10.9707107 C51,9.51463395 50.7136364,8.09205361 50.1409091,6.70292465 C49.5681818,5.31379569 48.709097,4.06694918 47.5636364,2.96234015 Z" id="Page-1-Copy-5" stroke="#E50032" stroke-width="7"></path>
                    <g id="Group-Copy-2" transform="translate(0.000000, 25.000000)">
                        <path d="M32.5194626,7.45578521 C31.8241558,6.76602138 30.9919115,6.42115 30.0226942,6.42115 C29.0534841,6.42115 28.2212397,6.76602138 27.5259329,7.45578521 C26.8306261,8.14554904 26.4829763,8.97115874 26.4829763,9.93264942 L26.4829763,30.5000002 L25.4716293,30.5000002 L25.4716293,13.9457876 C25.4716293,12.9843039 25.1239865,12.1586872 24.4286797,11.4689304 C23.7333729,10.7791666 22.9011286,10.4342882 21.9319113,10.4342882 C20.9627011,10.4342882 20.1304497,10.7791666 19.43515,11.4689304 C18.7398432,12.1586872 18.3921933,12.9843039 18.3921933,13.9457876 L18.3921933,30.5000002 L18.3921933,38.5262836 L13.5250811,32.0989895 C12.7244252,31.0329896 11.6498801,30.5000002 10.3014104,30.5000002 C9.18470936,30.5000002 8.23131252,30.8919046 7.44119296,31.6757274 C6.65107339,32.4595433 6.25601963,33.4053446 6.25601963,34.5131454 C6.25601963,35.4119207 6.52992371,36.216637 7.07773967,36.9273012 L19.2139176,52.9798673 C20.0145735,54.045863 21.0891186,54.5788532 22.4375883,54.5788532 L44.1815661,54.5788532 C44.8979413,54.5788532 45.540563,54.3489363 46.1094523,53.8890942 C46.6783345,53.4292529 47.0365186,52.8440088 47.1840116,52.1333445 L49.585958,39.4355091 C49.6913071,38.7666527 49.7439852,38.1500545 49.7439852,37.5857074 L49.7439852,21.972071 C49.7439852,21.0105873 49.3963353,20.1849706 48.7010285,19.4952138 C48.0057288,18.80545 47.1734774,18.4605716 46.2042672,18.4605716 C45.2350499,18.4605716 44.4028056,18.80545 43.7074988,19.4952138 C43.012192,20.1849706 42.6645492,21.0105873 42.6645492,21.972071 L42.6645492,30.5000002 L41.6532022,30.5000002 L41.6532022,13.9457876 C41.6532022,12.9843039 41.3055524,12.1586872 40.6102456,11.4689304 C39.9149388,10.7791666 39.0826944,10.4342882 38.1134842,10.4342882 C37.144267,10.4342882 36.3120227,10.7791666 35.6167159,11.4689304 C34.9214091,12.1586872 34.5737663,12.9843039 34.5737663,13.9457876 L34.5737663,30.5000002 L33.5624122,30.5000002 L33.5624122,9.93264942 C33.5624122,8.97115874 33.2147694,8.14554904 32.5194626,7.45578521 Z M25.8725467,1.22544425 C27.1993515,0.408478875 28.6405127,0 30.1960763,0 C31.75164,0 33.1870826,0.402805875 34.5024501,1.20842525 C35.8178177,2.01404462 36.8300617,3.10899462 37.5392205,4.49330575 C37.9738562,4.40253012 38.4542484,4.35714612 38.980397,4.35714612 C41.2451117,4.35714612 43.1838208,5.15707725 44.7965704,6.75697762 C46.4093199,8.35687037 47.215687,10.2801241 47.215687,12.5267846 L47.215687,13.1054687 C49.6176633,12.9693091 51.6821813,13.6954912 53.409318,15.284038 C55.136447,16.8725924 56,18.8582491 56,21.2410692 L56,38.1930836 C56,39.1008246 55.9085026,40.0425884 55.7254924,41.018413 L53.1176469,54.7706472 C52.7973829,56.5634387 51.9223928,58.0498456 50.4926457,59.2299104 C49.0629064,60.4099761 47.4215793,61 45.5686259,61 L21.9607863,61 C20.5882328,61 19.2785992,60.6879681 18.0318624,60.0638948 C16.7851255,59.4398221 15.7500072,58.5944993 14.926469,57.5279021 L1.75000029,40.0993336 C0.583327537,38.5561709 0,36.8087877 0,34.8571461 C0,32.4516264 0.857834387,30.397886 2.57352929,28.6958716 C4.2892242,26.9938496 6.35946544,26.1428539 8.78431297,26.1428539 C10.5686356,26.1428539 12.0326711,26.5286407 13.1764733,27.3002221 L13.1764733,12.5267846 C13.1764733,10.2801241 13.9828327,8.35687037 15.5955899,6.75697762 C17.2083395,5.15707725 19.1470486,4.35714612 21.4117633,4.35714612 C21.9379119,4.35714612 22.4182964,4.40253012 22.8529399,4.49330575 C23.5620986,3.10899462 24.568624,2.01971762 25.8725467,1.22544425 Z" id="Page-1" fill="#000000"></path>
                        <path d="M32.5726731,7.05273138 C31.8691796,6.35090332 31.0271363,6 30.0465073,6 C29.0658855,6 28.2238422,6.35090332 27.5203488,7.05273138 C26.8168553,7.75455945 26.4651121,8.59460938 26.4651121,9.5729169 L26.4651121,30.4999986 L25.4418574,30.4999986 L25.4418574,13.6562464 C25.4418574,12.677946 25.0901214,11.837889 24.386628,11.1360681 C23.6831345,10.43424 22.8410912,10.0833295 21.8604622,10.0833295 C20.8798404,10.0833295 20.0377899,10.43424 19.3343036,11.1360681 C18.6308102,11.837889 18.279067,12.677946 18.279067,13.6562464 L18.279067,30.4999986 L18.279067,38.6666648 L13.3546486,32.1269549 C12.5445657,31.0423102 11.4573687,30.4999986 10.0930219,30.4999986 C8.96317261,30.4999986 7.99855032,30.8987575 7.19912775,31.6962898 C6.39970519,32.4938148 6,33.4561586 6,34.5833352 C6,35.4978305 6.27712908,36.3166215 6.83139511,37.0397156 L19.1104664,53.3730473 C19.9205494,54.4576877 21.0077463,55 22.3720932,55 L44.3720881,55 C45.0968981,55 45.747086,54.7660618 46.3226735,54.2981769 C46.8982539,53.8302927 47.2606553,53.2348126 47.4098849,52.5117185 L49.8401122,39.591793 C49.9467017,38.9112381 50,38.2838553 50,37.7096375 L50,21.8229126 C50,20.8446122 49.6482569,20.0045552 48.9447634,19.3027342 C48.2412771,18.6009062 47.3992266,18.2499957 46.4186048,18.2499957 C45.4379758,18.2499957 44.5959325,18.6009062 43.892439,19.3027342 C43.1889456,20.0045552 42.8372096,20.8446122 42.8372096,21.8229126 L42.8372096,30.4999986 L41.8139549,30.4999986 L41.8139549,13.6562464 C41.8139549,12.677946 41.4622117,11.837889 40.7587182,11.1360681 C40.0552248,10.43424 39.2131815,10.0833295 38.2325597,10.0833295 C37.2519307,10.0833295 36.4098874,10.43424 35.7063939,11.1360681 C35.0029004,11.837889 34.6511645,12.677946 34.6511645,13.6562464 L34.6511645,30.4999986 L33.6279025,30.4999986 L33.6279025,9.5729169 C33.6279025,8.59460938 33.2761666,7.75455945 32.5726731,7.05273138 Z" id="Page-1-Copy-2" fill="#FFFFFF"></path>
                    </g>
                </g>
            </g>
        </g>
    </g>
</svg>